<svg width="25" height="25" viewBox="0 0 25 25" fill="none" xmlns="http://www.w3.org/2000/svg">
<path d="M10.2459 5.16631C10.7565 5.07075 11.2684 5.32566 11.4911 5.7864C11.5466 5.87001 11.5909 5.9602 11.6232 6.0548C11.7647 8.23901 11.9156 10.3862 12.0571 12.5334C12.0539 12.7566 12.089 12.9787 12.1609 13.1905C12.3302 13.6072 12.7514 13.8716 13.208 13.8476L20.1415 13.4034L20.1886 13.4219L20.3152 13.431C20.5658 13.4631 20.7995 13.5775 20.9769 13.7575C21.1839 13.9675 21.2974 14.2496 21.2925 14.5417C21.0191 18.5231 18.1002 21.8497 14.1279 22.7067C10.1556 23.5637 6.08351 21.7454 4.13311 18.2438C3.5596 17.2353 3.19719 16.1245 3.06714 14.9767C3.0167 14.6366 2.99461 14.2931 3.00111 13.9494C3.01425 9.71586 6.02841 6.06169 10.2459 5.16631ZM14.3683 2.08436C19.1295 2.22689 23.1087 5.68329 23.8299 10.3029C23.8345 10.3305 23.8345 10.3586 23.8299 10.3862L23.8286 10.5166C23.813 10.689 23.7422 10.8534 23.6246 10.9854C23.4777 11.1504 23.2698 11.2512 23.0469 11.2654L15.0475 11.793L14.9157 11.7956C14.6973 11.7849 14.4879 11.7 14.3248 11.5532C14.1291 11.377 14.0182 11.1281 14.0192 10.8675L13.4815 3.00987V2.8803C13.4913 2.6593 13.5903 2.45121 13.7566 2.30189C13.923 2.15258 14.143 2.07432 14.3683 2.08436Z" fill="#083D77"/>
</svg>
