<svg width="21" height="20" viewBox="0 0 21 20" fill="none" xmlns="http://www.w3.org/2000/svg">
<path d="M16.5167 0.884277C18.8958 0.884277 20.8323 2.82123 20.8323 5.201L20.8333 8.0163C20.8333 8.2226 20.751 8.42265 20.6052 8.56852C20.4583 8.71543 20.2604 8.79775 20.0521 8.79775C19.1969 8.79775 18.501 9.49376 18.501 10.3492C18.501 11.2046 19.1969 11.9006 20.0521 11.9006C20.4833 11.9006 20.8333 12.2507 20.8333 12.6821V15.4963C20.8333 17.8761 18.8979 19.812 16.5188 19.812H4.31563C1.93646 19.812 0 17.8761 0 15.4963V12.6821C0 12.2507 0.35 11.9006 0.78125 11.9006C1.6375 11.9006 2.33333 11.2046 2.33333 10.3492C2.33333 9.51564 1.66563 8.88839 0.78125 8.88839C0.573958 8.88839 0.376042 8.80608 0.229167 8.65917C0.0822917 8.51226 0 8.31325 0 8.10695L0.00208333 5.201C0.00208333 2.82123 1.9375 0.884277 4.31667 0.884277H16.5167ZM10.4188 6.30336C10.1229 6.30336 9.85833 6.46799 9.72604 6.73264L8.96667 8.27157L7.27292 8.51851C6.98021 8.56019 6.74063 8.76024 6.64792 9.04156C6.55625 9.32288 6.63021 9.62712 6.84271 9.83343L8.07083 11.0296L7.78125 12.7206C7.73125 13.0124 7.84896 13.302 8.08854 13.476C8.22396 13.5729 8.38125 13.6229 8.54063 13.6229C8.6625 13.6229 8.78542 13.5927 8.89792 13.5333L10.4167 12.7352L11.9323 13.5312C12.1948 13.6719 12.5063 13.65 12.7448 13.475C12.9854 13.302 13.1031 13.0124 13.0531 12.7206L12.7625 11.0296L13.9906 9.83343C14.2042 9.62712 14.2781 9.32288 14.1854 9.04156C14.0938 8.76024 13.8542 8.56018 13.5646 8.51955L11.8677 8.27157L11.1083 6.73368C10.9781 6.46903 10.7135 6.3044 10.4188 6.30336Z" fill="#083D77"/>
</svg>
