<svg width="21" height="22" viewBox="0 0 21 22" fill="none" xmlns="http://www.w3.org/2000/svg">
<path d="M14.0104 2.09862C13.9687 2.3615 13.9479 2.62439 13.9479 2.88727C13.9479 5.25324 15.8437 7.16599 18.1771 7.16599C18.4375 7.16599 18.6875 7.1355 18.9479 7.09344V15.5783C18.9479 19.1441 16.8646 21.2577 13.3229 21.2577H5.62604C2.08333 21.2577 0 19.1441 0 15.5783V7.79797C0 4.22273 2.08333 2.09862 5.62604 2.09862H14.0104ZM14.2198 8.49198C13.9375 8.46044 13.6573 8.58662 13.4896 8.81796L10.9698 12.1093L8.08333 9.81693C7.90625 9.68023 7.69792 9.6266 7.48958 9.64868C7.28229 9.68023 7.09479 9.79484 6.96875 9.96309L3.88646 14.0126L3.82292 14.1072C3.64583 14.4427 3.72917 14.8738 4.04167 15.1062C4.1875 15.2008 4.34375 15.2639 4.52083 15.2639C4.76146 15.2744 4.98958 15.1472 5.13542 14.9484L7.75 11.5509L10.7187 13.8023L10.8125 13.8643C11.1458 14.0431 11.5625 13.96 11.8021 13.6435L14.8125 9.72229L14.7708 9.74332C14.9375 9.51198 14.9687 9.21755 14.8542 8.95466C14.7406 8.69178 14.4896 8.51301 14.2198 8.49198ZM18.323 0.226562C19.7084 0.226562 20.8334 1.36223 20.8334 2.76077C20.8334 4.15932 19.7084 5.29499 18.323 5.29499C16.9376 5.29499 15.8126 4.15932 15.8126 2.76077C15.8126 1.36223 16.9376 0.226562 18.323 0.226562Z" fill="white"/>
</svg>
