<svg width="22" height="22" viewBox="0 0 22 22" fill="none" xmlns="http://www.w3.org/2000/svg">
<path d="M9.88826 0.791504C12.4743 0.791504 14.5833 2.88407 14.5833 5.46034V10.4972H8.22432C7.76859 10.4972 7.40825 10.8547 7.40825 11.3069C7.40825 11.7486 7.76859 12.1166 8.22432 12.1166H14.5833V17.143C14.5833 19.7192 12.4743 21.8223 9.86707 21.8223H4.70567C2.10907 21.8223 0 19.7297 0 17.1535V5.47086C0 2.88407 2.11967 0.791504 4.71627 0.791504H9.88826ZM17.2294 7.6793C17.5419 7.35333 18.0523 7.35333 18.3648 7.66879L21.4065 10.7288C21.5627 10.8865 21.646 11.0863 21.646 11.3071C21.646 11.5174 21.5627 11.7277 21.4065 11.8749L18.3648 14.9349C18.2085 15.0927 18.0002 15.1768 17.8023 15.1768C17.594 15.1768 17.3856 15.0927 17.2294 14.9349C16.9169 14.6195 16.9169 14.1042 17.2294 13.7888L18.896 12.1168L14.5833 12.1166V10.4972L18.896 10.4974L17.2294 8.82548C16.9169 8.51002 16.9169 7.99477 17.2294 7.6793Z" fill="#083D77"/>
</svg>
