<svg width="21" height="19" viewBox="0 0 21 19" fill="none" xmlns="http://www.w3.org/2000/svg">
<path d="M16.5997 0.125C18.9788 0.125 20.9153 2.04376 20.9153 4.40119L20.9163 7.19005C20.9163 7.39442 20.8341 7.59259 20.6882 7.73709C20.5413 7.88262 20.3434 7.96416 20.1351 7.96416C19.2799 7.96416 18.5841 8.65364 18.5841 9.50103C18.5841 10.3484 19.2799 11.0379 20.1351 11.0379C20.5663 11.0379 20.9163 11.3847 20.9163 11.812V14.5998C20.9163 16.9573 18.9809 18.875 16.6018 18.875H4.39863C2.01947 18.875 0.0830078 16.9573 0.0830078 14.5998V11.812C0.0830078 11.3847 0.433008 11.0379 0.864258 11.0379C1.72051 11.0379 2.41634 10.3484 2.41634 9.50103C2.41634 8.67531 1.74863 8.05396 0.864258 8.05396C0.656966 8.05396 0.45905 7.97242 0.312174 7.82689C0.165299 7.68136 0.0830078 7.48421 0.0830078 7.27985L0.0850911 4.40119C0.0850911 2.04376 2.02051 0.125 4.39967 0.125H16.5997ZM10.5018 5.4932C10.2059 5.4932 9.94134 5.65628 9.80905 5.91845L9.04967 7.44293L7.35593 7.68755C7.06322 7.72883 6.82363 7.92701 6.73093 8.20569C6.63926 8.48437 6.71322 8.78575 6.92572 8.99012L8.15384 10.175L7.86426 11.8502C7.81426 12.1392 7.93197 12.4261 8.17155 12.5985C8.30697 12.6945 8.46426 12.744 8.62363 12.744C8.74551 12.744 8.86842 12.7141 8.98092 12.6553L10.4997 11.8647L12.0153 12.6532C12.2778 12.7926 12.5893 12.7709 12.8278 12.5975C13.0684 12.4261 13.1861 12.1392 13.1361 11.8502L12.8455 10.175L14.0736 8.99012C14.2872 8.78575 14.3611 8.48437 14.2684 8.20569C14.1768 7.92701 13.9372 7.72883 13.6476 7.68858L11.9507 7.44293L11.1913 5.91948C11.0611 5.65731 10.7965 5.49423 10.5018 5.4932Z" fill="#6D6D6D"/>
</svg>
